<?xml version="1.0" encoding="utf-8"?>
<!-- Generator: Adobe Illustrator 18.1.1, SVG Export Plug-In . SVG Version: 6.00 Build 0)  -->
<!DOCTYPE svg PUBLIC "-//W3C//DTD SVG 1.1//EN" "http://www.w3.org/Graphics/SVG/1.1/DTD/svg11.dtd">
<svg version="1.1" id="Layer_1" xmlns="http://www.w3.org/2000/svg" xmlns:xlink="http://www.w3.org/1999/xlink" x="0px" y="0px"
	 viewBox="0 0 369 117" enable-background="new 0 0 369 117" xml:space="preserve">
<g>
	<g>
		<g>
			<path fill="#FFFFFF" d="M57.3,7C28.9,7,5.8,30.1,5.8,58.5c0,28.4,23.1,51.5,51.5,51.5c28.4,0,51.5-23.1,51.5-51.5
				C108.8,30.1,85.7,7,57.3,7z"/>
		</g>
		<g>
			<path fill="#FFFFFF" d="M184.5,7c-28.4,0-51.5,23-51.5,51.5c0,28.4,23,51.5,51.5,51.5c28.4,0,51.5-23.1,51.5-51.5
				C236,30.1,212.9,7,184.5,7z"/>
		</g>
		<g>
			<path fill="#FFFFFF" d="M311.7,7c-28.4,0-51.5,23-51.5,51.5c0,28.4,23.1,51.5,51.5,51.5c28.4,0,51.5-23.1,51.5-51.5
				C363.2,30.1,340.1,7,311.7,7z"/>
		</g>
	</g>
</g>
</svg>
